<svg width="112" height="83" viewBox="0 0 112 83" fill="none" xmlns="http://www.w3.org/2000/svg">
<path id="Vector" d="M4.60853 1.11328L1.49463 3.95822M4.60853 20.5537L1.49463 23.3987M4.60853 39.9941L1.49463 42.8391M4.60853 59.4346L1.49463 62.2795M4.60853 78.875L1.49463 81.7199M25.8868 1.11328L22.7729 3.95822M25.8868 20.5537L22.7729 23.3987M25.8868 39.9941L22.7729 42.8391M25.8868 59.4346L22.7729 62.2795M25.8868 78.875L22.7729 81.7199M47.1651 1.11328L44.0512 3.95822M47.1651 20.5537L44.0512 23.3987M47.1651 39.9941L44.0512 42.8391M47.1651 59.4346L44.0512 62.2795M47.1651 78.875L44.0512 81.7199M68.4434 1.11328L65.3295 3.95822M68.4434 20.5537L65.3295 23.3987M68.4434 39.9941L65.3295 42.8391M68.4434 59.4346L65.3295 62.2795M68.4434 78.875L65.3295 81.7199M89.7217 1.11328L86.6078 3.95822M89.7217 20.5537L86.6078 23.3987M89.7217 39.9941L86.6078 42.8391M89.7217 59.4346L86.6078 62.2795M89.7217 78.875L86.6078 81.7199M111 1.11328L107.886 3.95822M111 20.5537L107.886 23.3987M111 39.9941L107.886 42.8391M111 59.4346L107.886 62.2795M111 78.875L107.886 81.7199" stroke="#34251F" stroke-width="2"/>
</svg>
